<?xml version="1.0" encoding="utf-8"?>
<!-- Generator: Adobe Illustrator 26.0.2, SVG Export Plug-In . SVG Version: 6.00 Build 0)  -->
<svg version="1.1" id="Layer_1" xmlns="http://www.w3.org/2000/svg" xmlns:xlink="http://www.w3.org/1999/xlink" x="0px" y="0px"
	 viewBox="0 0 90 73" style="enable-background:new 0 0 90 73;" xml:space="preserve">
<style type="text/css">

		.st0{clip-path:url(#SVGID_00000077321316185750969360000007300624985357999243_);fill:#504B8E;stroke:#504B8E;stroke-width:0.5;stroke-miterlimit:10;}

		.st1{clip-path:url(#SVGID_00000103947147705154029690000008794081103911884418_);fill:#504B8E;stroke:#504B8E;stroke-width:0.5;stroke-miterlimit:10;}

		.st2{clip-path:url(#SVGID_00000144337234104782486840000015754462072215389830_);fill:#504B8E;stroke:#504B8E;stroke-width:0.5;stroke-miterlimit:10;}

		.st3{clip-path:url(#SVGID_00000168087114855580018240000008087680536598943895_);fill:#504B8E;stroke:#504B8E;stroke-width:0.5;stroke-miterlimit:10;}

		.st4{clip-path:url(#SVGID_00000063590999173260627340000010346496807397530241_);fill:#504B8E;stroke:#504B8E;stroke-width:0.5;stroke-miterlimit:10;}

		.st5{clip-path:url(#SVGID_00000059290591528999634520000006815510828578857657_);fill:#504B8E;stroke:#504B8E;stroke-width:0.5;stroke-miterlimit:10;}

		.st6{clip-path:url(#SVGID_00000031193917731433424860000017701531656438321288_);fill:#504B8E;stroke:#504B8E;stroke-width:0.5;stroke-miterlimit:10;}

		.st7{clip-path:url(#SVGID_00000041284995813833838540000018443480804308360117_);fill:#504B8E;stroke:#504B8E;stroke-width:0.5;stroke-miterlimit:10;}

		.st8{clip-path:url(#SVGID_00000126306179484211865100000008303983782884225939_);fill:#504B8E;stroke:#504B8E;stroke-width:0.5;stroke-miterlimit:10;}

		.st9{clip-path:url(#SVGID_00000020360854527339868940000008837287581132113054_);fill:#504B8E;stroke:#504B8E;stroke-width:0.5;stroke-miterlimit:10;}
</style>
<g>
	<defs>
		<path id="SVGID_1_" d="M42.2,10.8c4.3-0.6,8.7,0,12.6,1.5c4,1.6,7.5,4.1,10.3,7.5c0.7,0.9,1.4,1.8,2,2.8c0.6,1,1.1,2,1.6,3
			l-3.7,1.6c-0.4-0.9-0.8-1.7-1.3-2.5c-0.5-0.8-1-1.6-1.7-2.3c-2.3-2.8-5.3-5-8.6-6.3c-3.3-1.3-7-1.8-10.6-1.3L42.2,10.8z"/>
	</defs>
	<use xlink:href="#SVGID_1_"  style="overflow:visible;fill:#504B8E;"/>
	<clipPath id="SVGID_00000144301364690557789850000000072801375606268826_">
		<use xlink:href="#SVGID_1_"  style="overflow:visible;"/>
	</clipPath>

		<rect x="42.2" y="10.3" style="clip-path:url(#SVGID_00000144301364690557789850000000072801375606268826_);fill:#504B8E;stroke:#504B8E;stroke-width:0.5;stroke-miterlimit:10;" width="26.5" height="17.1"/>
	<use xlink:href="#SVGID_1_"  style="overflow:visible;fill:none;stroke:#504B8E;stroke-width:0.5;stroke-miterlimit:10;"/>
</g>
<g>
	<defs>
		<path id="SVGID_00000037687886885897831110000018404954845542260627_" d="M69.2,44.5c-0.8,2.1-1.8,4.1-3.1,5.9
			c-1.3,1.8-2.8,3.5-4.6,4.9c-2.6,2.1-5.6,3.7-8.7,4.6c-3.1,0.9-6.5,1.3-9.8,0.9l0.4-4c2.8,0.3,5.6,0,8.2-0.8
			c2.6-0.8,5.1-2.1,7.3-3.9c1.5-1.2,2.7-2.6,3.8-4.1c1.1-1.5,2-3.2,2.6-4.9L69.2,44.5z"/>
	</defs>
	<use xlink:href="#SVGID_00000037687886885897831110000018404954845542260627_"  style="overflow:visible;fill:#504B8E;"/>
	<clipPath id="SVGID_00000083090822241182696400000011754141074580404375_">
		<use xlink:href="#SVGID_00000037687886885897831110000018404954845542260627_"  style="overflow:visible;"/>
	</clipPath>

		<rect x="43" y="43.1" style="clip-path:url(#SVGID_00000083090822241182696400000011754141074580404375_);fill:#504B8E;stroke:#504B8E;stroke-width:0.5;stroke-miterlimit:10;" width="26.2" height="18.1"/>

		<use xlink:href="#SVGID_00000037687886885897831110000018404954845542260627_"  style="overflow:visible;fill:none;stroke:#504B8E;stroke-width:0.5;stroke-miterlimit:10;"/>
</g>
<g>
	<defs>
		<path id="SVGID_00000052816971380935729810000013880419216138999709_" d="M26.1,51.8c-3.6-4.4-5.5-9.7-5.7-15.1
			c-0.2-5.4,1.3-10.8,4.6-15.4l3.3,2.3c-2.7,3.9-4,8.4-3.8,12.9c0.2,4.5,1.8,8.9,4.8,12.6L26.1,51.8z"/>
	</defs>
	<use xlink:href="#SVGID_00000052816971380935729810000013880419216138999709_"  style="overflow:visible;fill:#504B8E;"/>
	<clipPath id="SVGID_00000118356057878401324900000002040523076574222485_">
		<use xlink:href="#SVGID_00000052816971380935729810000013880419216138999709_"  style="overflow:visible;"/>
	</clipPath>

		<rect x="20.2" y="21.3" style="clip-path:url(#SVGID_00000118356057878401324900000002040523076574222485_);fill:#504B8E;stroke:#504B8E;stroke-width:0.5;stroke-miterlimit:10;" width="9" height="30.5"/>

		<use xlink:href="#SVGID_00000052816971380935729810000013880419216138999709_"  style="overflow:visible;fill:none;stroke:#504B8E;stroke-width:0.5;stroke-miterlimit:10;"/>
</g>
<g>
	<defs>
		<path id="SVGID_00000032615530427896844660000006328379166047452810_" d="M17.6,19.1c0.9,0,1.5,0.7,1.5,1.5c0,0.9-0.7,1.5-1.5,1.5
			c-0.9,0-1.5-0.7-1.5-1.5C16,19.8,16.7,19.1,17.6,19.1 M56.1,4.1c0.9,0,1.5,0.7,1.5,1.5S57,7.2,56.1,7.2c-0.9,0-1.5-0.7-1.5-1.5
			S55.3,4.1,56.1,4.1z M20.9,18.9c0.3,0.5,0.4,1.1,0.4,1.7c0,2.1-1.7,3.7-3.7,3.7c-2.1,0-3.7-1.7-3.7-3.7c0-2,1.6-3.6,3.6-3.7
			c3-4.5,7-8.1,11.6-10.7c5-2.8,10.7-4.3,16.6-4.3c1.5,0,3.1,0.1,4.6,0.3c1.2,0.2,2.3,0.4,3.5,0.7c0.7-0.6,1.5-0.9,2.4-0.9
			c2.1,0,3.7,1.7,3.7,3.7c0,2.1-1.7,3.7-3.7,3.7c-1.7,0-3.1-1.1-3.6-2.7c-1-0.2-1.9-0.4-2.9-0.5C48.3,6,47,5.9,45.6,5.9
			c-5.2,0-10.2,1.3-14.6,3.8C27,11.9,23.5,15.1,20.9,18.9z"/>
	</defs>

		<use xlink:href="#SVGID_00000032615530427896844660000006328379166047452810_"  style="overflow:visible;fill-rule:evenodd;clip-rule:evenodd;fill:#504B8E;"/>
	<clipPath id="SVGID_00000176740522174452502490000002006025560594236548_">
		<use xlink:href="#SVGID_00000032615530427896844660000006328379166047452810_"  style="overflow:visible;"/>
	</clipPath>

		<rect x="13.8" y="1.8" style="clip-path:url(#SVGID_00000176740522174452502490000002006025560594236548_);fill:#504B8E;stroke:#504B8E;stroke-width:0.5;stroke-miterlimit:10;" width="46" height="22.5"/>

		<use xlink:href="#SVGID_00000032615530427896844660000006328379166047452810_"  style="overflow:visible;fill-rule:evenodd;clip-rule:evenodd;fill:none;stroke:#504B8E;stroke-width:0.5;stroke-miterlimit:10;"/>
</g>
<g>
	<defs>
		<path id="SVGID_00000039106136360509778050000004121467255003732104_" d="M48.3,65.9c0.9,0,1.5,0.7,1.5,1.5c0,0.9-0.7,1.5-1.5,1.5
			c-0.9,0-1.5-0.7-1.5-1.5C46.8,66.6,47.5,65.9,48.3,65.9 M14.2,40.6c0.9,0,1.5,0.7,1.5,1.5c0,0.9-0.7,1.5-1.5,1.5
			c-0.9,0-1.5-0.7-1.5-1.5C12.7,41.3,13.4,40.6,14.2,40.6z M48.3,63.7c2.1,0,3.7,1.7,3.7,3.7c0,2.1-1.7,3.7-3.7,3.7
			c-1.2,0-2.3-0.6-3-1.5c-7.5-0.1-14.6-2.6-20.3-6.9c-5.5-4.2-9.8-10.1-11.9-17c-1.5-0.5-2.7-1.9-2.7-3.6c0-2.1,1.7-3.7,3.7-3.7
			s3.7,1.7,3.7,3.7c0,0.9-0.3,1.8-0.9,2.4c1.9,6.1,5.6,11.3,10.5,15c4.9,3.7,11,6,17.6,6.1C45.7,64.5,46.9,63.7,48.3,63.7z"/>
	</defs>

		<use xlink:href="#SVGID_00000039106136360509778050000004121467255003732104_"  style="overflow:visible;fill-rule:evenodd;clip-rule:evenodd;fill:#504B8E;"/>
	<clipPath id="SVGID_00000017491515247513698380000004018946854539818413_">
		<use xlink:href="#SVGID_00000039106136360509778050000004121467255003732104_"  style="overflow:visible;"/>
	</clipPath>

		<rect x="10.5" y="38.4" style="clip-path:url(#SVGID_00000017491515247513698380000004018946854539818413_);fill:#504B8E;stroke:#504B8E;stroke-width:0.5;stroke-miterlimit:10;" width="41.5" height="32.8"/>

		<use xlink:href="#SVGID_00000039106136360509778050000004121467255003732104_"  style="overflow:visible;fill-rule:evenodd;clip-rule:evenodd;fill:none;stroke:#504B8E;stroke-width:0.5;stroke-miterlimit:10;"/>
</g>
<g>
	<defs>
		<path id="SVGID_00000023277850716196036000000005004631564799681423_" d="M66.9,58.4c0.9,0,1.5,0.7,1.5,1.5c0,0.9-0.7,1.5-1.5,1.5
			c-0.9,0-1.5-0.7-1.5-1.5C65.3,59.1,66,58.4,66.9,58.4 M71.9,16.1c0.9,0,1.5,0.7,1.5,1.5s-0.7,1.5-1.5,1.5c-0.9,0-1.5-0.7-1.5-1.5
			S71.1,16.1,71.9,16.1z M66.9,56.2c0.2,0,0.3,0,0.4,0c2.5-2.6,4.5-5.7,5.8-9c1.5-3.6,2.3-7.5,2.3-11.5c0-2.7-0.4-5.3-1-7.8
			c-0.6-2.3-1.5-4.5-2.6-6.5c-2-0.1-3.6-1.7-3.6-3.7c0-2.1,1.7-3.7,3.7-3.7s3.7,1.7,3.7,3.7c0,0.6-0.1,1.2-0.4,1.7
			c1.3,2.4,2.3,4.9,3,7.5c0.8,2.9,1.2,5.9,1.2,8.9c0,4.5-0.9,8.9-2.6,13c-1.5,3.7-3.7,7.1-6.5,10.1c0.1,0.3,0.2,0.7,0.2,1.1
			c0,2.1-1.7,3.7-3.7,3.7S63.1,62,63.1,60C63.1,57.9,64.8,56.2,66.9,56.2z"/>
	</defs>

		<use xlink:href="#SVGID_00000023277850716196036000000005004631564799681423_"  style="overflow:visible;fill-rule:evenodd;clip-rule:evenodd;fill:#504B8E;"/>
	<clipPath id="SVGID_00000140730079547752669700000018414184993075508099_">
		<use xlink:href="#SVGID_00000023277850716196036000000005004631564799681423_"  style="overflow:visible;"/>
	</clipPath>

		<rect x="63.1" y="13.9" style="clip-path:url(#SVGID_00000140730079547752669700000018414184993075508099_);fill:#504B8E;stroke:#504B8E;stroke-width:0.5;stroke-miterlimit:10;" width="16.4" height="49.7"/>

		<use xlink:href="#SVGID_00000023277850716196036000000005004631564799681423_"  style="overflow:visible;fill-rule:evenodd;clip-rule:evenodd;fill:none;stroke:#504B8E;stroke-width:0.5;stroke-miterlimit:10;"/>
</g>
<g>
	<defs>
		<path id="SVGID_00000134233537371681254750000009154039531030909619_" d="M45.9,30c2.8,0,5.1,2.3,5.1,5.1c0,2.8-2.3,5.1-5.1,5.1
			c-2.8,0-5.1-2.3-5.1-5.1C40.8,32.3,43.1,30,45.9,30"/>
	</defs>

		<use xlink:href="#SVGID_00000134233537371681254750000009154039531030909619_"  style="overflow:visible;fill-rule:evenodd;clip-rule:evenodd;fill:#504B8E;"/>
	<clipPath id="SVGID_00000096740308622394858170000004266738005293301174_">
		<use xlink:href="#SVGID_00000134233537371681254750000009154039531030909619_"  style="overflow:visible;"/>
	</clipPath>

		<rect x="40.8" y="30" style="clip-path:url(#SVGID_00000096740308622394858170000004266738005293301174_);fill:#504B8E;stroke:#504B8E;stroke-width:0.5;stroke-miterlimit:10;" width="10.2" height="10.2"/>

		<use xlink:href="#SVGID_00000134233537371681254750000009154039531030909619_"  style="overflow:visible;fill-rule:evenodd;clip-rule:evenodd;fill:none;stroke:#504B8E;stroke-width:0.5;stroke-miterlimit:10;"/>
</g>
<g>
	<defs>
		<path id="SVGID_00000045576830918568315540000018116232242938721955_" d="M55,25.7c0.7,0,1.2,0.5,1.2,1.2c0,0.7-0.5,1.2-1.2,1.2
			c-0.7,0-1.2-0.5-1.2-1.2C53.8,26.3,54.3,25.7,55,25.7 M37.7,25c0.7,0,1.2,0.5,1.2,1.2c0,0.7-0.5,1.2-1.2,1.2
			c-0.7,0-1.2-0.5-1.2-1.2C36.5,25.6,37,25,37.7,25z M55,24c1.6,0,2.9,1.3,2.9,2.9c0,1.6-1.3,2.9-2.9,2.9c-1.5,0-2.8-1.2-2.9-2.7
			c-0.2-0.2-0.4-0.3-0.6-0.4h0c-0.4-0.2-0.8-0.5-1.2-0.7c-1.6-0.7-3.4-1-5.2-0.9c-1.6,0.1-3.1,0.6-4.4,1.4c-0.2,1.5-1.4,2.6-2.9,2.6
			c-1.6,0-2.9-1.3-2.9-2.9c0-1.6,1.3-2.9,2.9-2.9c0.1,0,0.3,0,0.4,0c2-1.3,4.3-2,6.6-2.2c2.4-0.2,4.9,0.2,7.2,1.2
			c0.6,0.3,1.2,0.6,1.7,0.9l0,0c0.4,0.2,0.7,0.5,1.1,0.7C54.8,24,54.9,24,55,24z"/>
	</defs>

		<use xlink:href="#SVGID_00000045576830918568315540000018116232242938721955_"  style="overflow:visible;fill-rule:evenodd;clip-rule:evenodd;fill:#504B8E;"/>
	<clipPath id="SVGID_00000052064366883649564230000007053366892027554476_">
		<use xlink:href="#SVGID_00000045576830918568315540000018116232242938721955_"  style="overflow:visible;"/>
	</clipPath>

		<rect x="34.7" y="20.9" style="clip-path:url(#SVGID_00000052064366883649564230000007053366892027554476_);fill:#504B8E;stroke:#504B8E;stroke-width:0.5;stroke-miterlimit:10;" width="23.2" height="8.9"/>

		<use xlink:href="#SVGID_00000045576830918568315540000018116232242938721955_"  style="overflow:visible;fill-rule:evenodd;clip-rule:evenodd;fill:none;stroke:#504B8E;stroke-width:0.5;stroke-miterlimit:10;"/>
</g>
<g>
	<defs>
		<path id="SVGID_00000121979124933581274720000005387718098630658488_" d="M48.9,46.5c0.7,0,1.2,0.5,1.2,1.2s-0.5,1.2-1.2,1.2
			c-0.7,0-1.2-0.5-1.2-1.2S48.2,46.5,48.9,46.5 M58.1,31.4c0.7,0,1.2,0.5,1.2,1.2c0,0.7-0.5,1.2-1.2,1.2c-0.7,0-1.2-0.5-1.2-1.2
			C56.9,32,57.5,31.4,58.1,31.4z M48.9,44.8c0.5,0,0.9,0.1,1.3,0.3c1.1-0.5,2-1.1,2.9-1.9c1-0.9,1.8-2,2.4-3.3
			c0.4-0.9,0.7-1.7,0.8-2.6c0.1-0.7,0.2-1.5,0.1-2.3c-0.7-0.5-1.1-1.3-1.1-2.3c0-1.6,1.3-2.9,2.9-2.9c1.6,0,2.9,1.3,2.9,2.9
			c0,0.7-0.3,1.4-0.7,1.9c0.1,1.1,0,2.1-0.2,3.2c-0.2,1.3-0.6,2.5-1.1,3.7c-0.8,1.7-1.9,3.3-3.3,4.6c-1.2,1.1-2.6,2.1-4.2,2.7
			c-0.4,1-1.5,1.8-2.7,1.8c-1.6,0-2.9-1.3-2.9-2.9C46,46.1,47.3,44.8,48.9,44.8z"/>
	</defs>

		<use xlink:href="#SVGID_00000121979124933581274720000005387718098630658488_"  style="overflow:visible;fill-rule:evenodd;clip-rule:evenodd;fill:#504B8E;"/>
	<clipPath id="SVGID_00000051341645942615587320000005721007982598503555_">
		<use xlink:href="#SVGID_00000121979124933581274720000005387718098630658488_"  style="overflow:visible;"/>
	</clipPath>

		<rect x="46" y="29.7" style="clip-path:url(#SVGID_00000051341645942615587320000005721007982598503555_);fill:#504B8E;stroke:#504B8E;stroke-width:0.5;stroke-miterlimit:10;" width="15.1" height="20.9"/>

		<use xlink:href="#SVGID_00000121979124933581274720000005387718098630658488_"  style="overflow:visible;fill-rule:evenodd;clip-rule:evenodd;fill:none;stroke:#504B8E;stroke-width:0.5;stroke-miterlimit:10;"/>
</g>
<g>
	<defs>
		<path id="SVGID_00000175315490057060584520000004054641164829321869_" d="M42.1,46.3c0.7,0,1.2,0.5,1.2,1.2s-0.5,1.2-1.2,1.2
			c-0.7,0-1.2-0.5-1.2-1.2S41.4,46.3,42.1,46.3 M33.8,31.1c0.7,0,1.2,0.5,1.2,1.2c0,0.7-0.5,1.2-1.2,1.2c-0.7,0-1.2-0.5-1.2-1.2
			C32.6,31.6,33.1,31.1,33.8,31.1z M42.1,44.6c1.6,0,2.9,1.3,2.9,2.9c0,1.6-1.3,2.9-2.9,2.9c-1.3,0-2.4-0.9-2.8-2.1
			c-2.6-1.4-4.7-3.5-6.1-6c-1.3-2.5-2-5.4-1.7-8.3c-0.4-0.5-0.7-1.1-0.7-1.9c0-1.6,1.3-2.9,2.9-2.9c1.6,0,2.9,1.3,2.9,2.9
			c0,0.9-0.5,1.8-1.1,2.3c-0.2,2.1,0.3,4.1,1.2,5.9c1,1.8,2.5,3.3,4.3,4.3C41.4,44.7,41.7,44.6,42.1,44.6z"/>
	</defs>

		<use xlink:href="#SVGID_00000175315490057060584520000004054641164829321869_"  style="overflow:visible;fill-rule:evenodd;clip-rule:evenodd;fill:#504B8E;"/>
	<clipPath id="SVGID_00000083055452634973102620000011239267070339276475_">
		<use xlink:href="#SVGID_00000175315490057060584520000004054641164829321869_"  style="overflow:visible;"/>
	</clipPath>

		<rect x="30.8" y="29.4" style="clip-path:url(#SVGID_00000083055452634973102620000011239267070339276475_);fill:#504B8E;stroke:#504B8E;stroke-width:0.5;stroke-miterlimit:10;" width="14.1" height="21.1"/>

		<use xlink:href="#SVGID_00000175315490057060584520000004054641164829321869_"  style="overflow:visible;fill-rule:evenodd;clip-rule:evenodd;fill:none;stroke:#504B8E;stroke-width:0.5;stroke-miterlimit:10;"/>
</g>
</svg>
